<svg width="512" height="512" fill="none" xmlns="http://www.w3.org/2000/svg"><path fill="#282C34" d="M0 0h512v512H0z"/><path d="M124.211 140.458s-4.524-42.11 0-42.458c0 0 24.709 2.784 31.669 33.757m-31.669 8.701c-18.561 11.136-38.978 24.709-38.978 85.611m38.978-85.611c14.5-8.701 31.669-8.701 31.669-8.701m0 0h54.606m0 0c-7.641 10.602-12.136 23.523-12.136 23.523m12.136-23.523c2.636-3.657 5.769-7.477 9.429-11.136 14.268-14.269 42.11-16.705 42.11-14.269 0 2.436-7.036 25.405-7.036 25.405m0 0l-6.525 23.523m6.525-23.523c57.723 4.186 120.864-6.585 160.099 25.649m0 0c19.482 16.006 34.052 24.175 37.3 87.108 3.249 62.933-30.274 107.708-83.871 124.781m46.571-211.889s5.676-9.802 13.052-17.541c7.376-7.739 21.619-3.612 20.484 7.739-1.135 11.35-11.351 9.802-11.351 9.802s-8.77-2.063-7.739-9.802c1.032-7.739 4.128-25.797 26.466-25.797m-87.483 247.488l-1.032 35.163m1.032-35.163c-22.366 7.125-49.418 10.429-81.435 10.478M93.586 292.888S56 297.934 56 271.659c0-26.274 4.176-26.449 4.176-26.449m33.41 47.678s42.122 8.558 42.122-27.287c0-35.846-75.532-20.391-75.532-20.391m33.41 47.678s12.375 31.782 54.986 56.818M60.176 245.21s12.007-13.175 25.057-19.141m0 0l11.149-1.882M286.05 414.203l1.032-34.43m0 0c-10.192.015-20.886-.299-32.093-.925-33.734-1.885-60.804-8.518-82.404-17.323m-1.032 42.933l1.032-42.933m0 0c-8.907-3.63-16.883-7.63-24.013-11.819m-1.032 45.704l1.032-45.704" stroke="#DCDFE4" stroke-width="10" stroke-linecap="round" stroke-linejoin="round"/><path d="M138.576 194.588c0 6.399-2.591 11.587-5.788 11.587S127 200.987 127 194.588c0-6.4 2.591-11.588 5.788-11.588s5.788 5.188 5.788 11.588zM207 201.412c0 6.4-2.591 11.588-5.788 11.588s-5.788-5.188-5.788-11.588c0-6.399 2.591-11.587 5.788-11.587S207 195.013 207 201.412z" fill="#DCDFE4"/><path d="M77.152 257.161c-3.48 9.745 0 22.273 0 22.273m33.41-22.969c-3.481 9.745 0 22.273 0 22.273M113.722 180.337c7.476-8.575 37.705-8.627 46.286 0m25.057 1.392c14.268-6.612 39.445.769 48.026 9.396" stroke="#DCDFE4" stroke-width="10" stroke-linecap="round"/></svg>